# xmcd
#
# Track frame offsets: 
#        150
#        16718
#        55542
#        87386
#        104167
#        137289
#        173079
#        195612
#
# Disc length: 3181 seconds
#
# Revision: 0
# Processed by: cddbd v1.5.2PL0 Copyright (c) Steve Scherf et al.
# Submitted via: ExactAudioCopy v0.95b4
#
DISCID=5c0c6b08
DTITLE=Godsmack - 2004-12-12-Oakdale Theatre-Wallingford, CT [CD1]
DYEAR=2004
DGENRE=Blues
TTITLE0=Asleep
TTITLE1=Trippin'
TTITLE2=Re-align
TTITLE3=Running Blind
TTITLE4=Voices
TTITLE5=Serenity
TTITLE6=Homeward
TTITLE7=Voodoo
EXTD=
EXTT0=
EXTT1=
EXTT2=
EXTT3=
EXTT4=
EXTT5=
EXTT6=
EXTT7=
PLAYORDER=
